<mxfile host="65bd71144e">
    <diagram id="7ssXIkKnfBAeJIwuX_k8" name="Page-1">
        <mxGraphModel dx="1997" dy="787" grid="1" gridSize="10" guides="1" tooltips="1" connect="1" arrows="1" fold="1" page="1" pageScale="1" pageWidth="850" pageHeight="1100" math="0" shadow="0">
            <root>
                <mxCell id="0"/>
                <mxCell id="1" parent="0"/>
                <mxCell id="2" value="" style="rounded=1;whiteSpace=wrap;html=1;comic=1;treeFolding=0;treeMoving=0;" parent="1" vertex="1">
                    <mxGeometry x="-60" y="20" width="1070" height="380" as="geometry"/>
                </mxCell>
                <mxCell id="3" value="" style="rounded=0;whiteSpace=wrap;html=1;comic=1;" parent="1" vertex="1">
                    <mxGeometry x="-20" y="85" width="430" height="270" as="geometry"/>
                </mxCell>
                <mxCell id="12" value="" style="edgeStyle=none;html=1;fontFamily=Comic Sans MS;comic=1;" parent="1" source="4" target="5" edge="1">
                    <mxGeometry relative="1" as="geometry"/>
                </mxCell>
                <mxCell id="13" value="确认" style="edgeLabel;html=1;align=center;verticalAlign=middle;resizable=0;points=[];fontFamily=Comic Sans MS;" parent="12" vertex="1" connectable="0">
                    <mxGeometry x="-0.3429" relative="1" as="geometry">
                        <mxPoint as="offset"/>
                    </mxGeometry>
                </mxCell>
                <mxCell id="4" value="&lt;font style=&quot;font-size: 14px;&quot; face=&quot;Comic Sans MS&quot;&gt;生成非标合同&lt;/font&gt;" style="ellipse;whiteSpace=wrap;html=1;aspect=fixed;comic=1;" parent="1" vertex="1">
                    <mxGeometry x="-10" y="110" width="70" height="70" as="geometry"/>
                </mxCell>
                <mxCell id="14" value="" style="edgeStyle=none;comic=1;html=1;fontFamily=Comic Sans MS;" parent="1" source="5" target="6" edge="1">
                    <mxGeometry relative="1" as="geometry"/>
                </mxCell>
                <mxCell id="29" value="审核通过" style="edgeLabel;html=1;align=center;verticalAlign=middle;resizable=0;points=[];" vertex="1" connectable="0" parent="14">
                    <mxGeometry x="-0.425" y="1" relative="1" as="geometry">
                        <mxPoint as="offset"/>
                    </mxGeometry>
                </mxCell>
                <mxCell id="5" value="&lt;font style=&quot;font-size: 14px;&quot;&gt;已泛微合同审核&lt;/font&gt;" style="rounded=0;whiteSpace=wrap;html=1;comic=1;fontFamily=Comic Sans MS;" parent="1" vertex="1">
                    <mxGeometry x="140" y="117.5" width="80" height="55" as="geometry"/>
                </mxCell>
                <mxCell id="16" style="edgeStyle=none;comic=1;html=1;exitX=0.5;exitY=1;exitDx=0;exitDy=0;entryX=0.5;entryY=0;entryDx=0;entryDy=0;fontFamily=Comic Sans MS;" parent="1" source="6" target="7" edge="1">
                    <mxGeometry relative="1" as="geometry"/>
                </mxCell>
                <mxCell id="6" value="&lt;span style=&quot;font-size: 14px;&quot;&gt;合同打水印&lt;/span&gt;" style="rounded=0;whiteSpace=wrap;html=1;comic=1;fontFamily=Comic Sans MS;" parent="1" vertex="1">
                    <mxGeometry x="300" y="117.5" width="80" height="55" as="geometry"/>
                </mxCell>
                <mxCell id="18" value="" style="edgeStyle=none;comic=1;html=1;fontFamily=Comic Sans MS;" parent="1" source="7" target="8" edge="1">
                    <mxGeometry relative="1" as="geometry"/>
                </mxCell>
                <mxCell id="7" value="&lt;span style=&quot;font-size: 14px;&quot;&gt;已确认盖章&lt;/span&gt;" style="rounded=0;whiteSpace=wrap;html=1;comic=1;fontFamily=Comic Sans MS;" parent="1" vertex="1">
                    <mxGeometry x="300" y="260" width="80" height="55" as="geometry"/>
                </mxCell>
                <mxCell id="8" value="&lt;font style=&quot;font-size: 14px;&quot;&gt;归档&lt;/font&gt;" style="rounded=0;whiteSpace=wrap;html=1;comic=1;fontFamily=Comic Sans MS;" parent="1" vertex="1">
                    <mxGeometry x="130" y="260" width="80" height="55" as="geometry"/>
                </mxCell>
                <mxCell id="23" value="&lt;font style=&quot;font-size: 12px;&quot;&gt;发起电子签收&lt;/font&gt;" style="edgeStyle=none;comic=1;html=1;exitX=1;exitY=0.5;exitDx=0;exitDy=0;entryX=0;entryY=0.5;entryDx=0;entryDy=0;fontFamily=Comic Sans MS;fontSize=14;" parent="1" source="9" target="11" edge="1">
                    <mxGeometry relative="1" as="geometry"/>
                </mxCell>
                <mxCell id="11" value="&lt;font style=&quot;font-size: 14px;&quot;&gt;契约锁&lt;br&gt;（电子签章）&lt;/font&gt;" style="rounded=0;whiteSpace=wrap;html=1;comic=1;fontFamily=Comic Sans MS;fillColor=#FF99FF;" parent="1" vertex="1">
                    <mxGeometry x="830" y="180" width="160" height="90" as="geometry"/>
                </mxCell>
                <mxCell id="21" value="" style="edgeStyle=elbowEdgeStyle;elbow=horizontal;endArrow=classic;html=1;curved=0;rounded=0;endSize=8;startSize=8;comic=1;fontFamily=Comic Sans MS;entryX=0;entryY=0.5;entryDx=0;entryDy=0;exitX=1;exitY=0.5;exitDx=0;exitDy=0;" parent="1" source="7" target="9" edge="1">
                    <mxGeometry width="50" height="50" relative="1" as="geometry">
                        <mxPoint x="490" y="390" as="sourcePoint"/>
                        <mxPoint x="540" y="340" as="targetPoint"/>
                    </mxGeometry>
                </mxCell>
                <mxCell id="22" value="创建签署" style="edgeLabel;html=1;align=center;verticalAlign=middle;resizable=0;points=[];fontFamily=Comic Sans MS;" parent="21" vertex="1" connectable="0">
                    <mxGeometry x="-0.1556" y="-1" relative="1" as="geometry">
                        <mxPoint as="offset"/>
                    </mxGeometry>
                </mxCell>
                <mxCell id="25" value="完成通知" style="edgeStyle=segmentEdgeStyle;endArrow=classic;html=1;rounded=1;endSize=8;startSize=8;comic=1;fontFamily=Comic Sans MS;fontSize=12;exitX=0.907;exitY=0.579;exitDx=0;exitDy=0;exitPerimeter=0;dashed=1;" parent="1" source="2" edge="1">
                    <mxGeometry width="50" height="50" relative="1" as="geometry">
                        <mxPoint x="700" y="350" as="sourcePoint"/>
                        <mxPoint x="630" y="180" as="targetPoint"/>
                        <Array as="points">
                            <mxPoint x="911" y="120"/>
                            <mxPoint x="630" y="120"/>
                        </Array>
                    </mxGeometry>
                </mxCell>
                <mxCell id="9" value="&lt;font style=&quot;font-size: 14px;&quot;&gt;电子签统一服务&lt;/font&gt;" style="rounded=0;whiteSpace=wrap;html=1;comic=1;fontFamily=Comic Sans MS;fillColor=#007FFF;" parent="1" vertex="1">
                    <mxGeometry x="550" y="180" width="160" height="90" as="geometry"/>
                </mxCell>
                <mxCell id="26" value="签署完成通知" style="edgeStyle=segmentEdgeStyle;endArrow=classic;html=1;curved=0;rounded=0;endSize=8;startSize=8;dashed=1;comic=1;fontFamily=Comic Sans MS;fontSize=12;entryX=0.5;entryY=1;entryDx=0;entryDy=0;" parent="1" target="7" edge="1">
                    <mxGeometry width="50" height="50" relative="1" as="geometry">
                        <mxPoint x="630" y="270" as="sourcePoint"/>
                        <mxPoint x="330" y="360" as="targetPoint"/>
                        <Array as="points">
                            <mxPoint x="630" y="380"/>
                            <mxPoint x="340" y="380"/>
                        </Array>
                    </mxGeometry>
                </mxCell>
                <mxCell id="28" value="&lt;font style=&quot;font-size: 24px;&quot;&gt;&lt;b&gt;OA非准合同&lt;/b&gt;&lt;/font&gt;" style="text;strokeColor=none;align=center;fillColor=none;html=1;verticalAlign=middle;whiteSpace=wrap;rounded=0;comic=1;fontFamily=Comic Sans MS;fontSize=12;" parent="1" vertex="1">
                    <mxGeometry x="360" y="30" width="180" height="30" as="geometry"/>
                </mxCell>
            </root>
        </mxGraphModel>
    </diagram>
</mxfile>